# AST/ASF file generated using VICON BodyLanguage
# -----------------------------------------------
:version 1.10
:name VICON
:units
  mass 1.0
  length 0.45
  angle deg
:documentation
   .ast/.asf automatically generated from VICON data using
   VICON BodyBuilder and BodyLanguage model FoxedUp or BRILLIANT.MOD
:root
   order TX TY TZ RX RY RZ
   axis XYZ
   position 0 0 0  
   orientation 0 0 0 
:bonedata
  begin
     id 1 
     name lhipjoint
     direction 0.714689 -0.624256 0.315473 
     length 2.45343 
     axis 0 0 0  XYZ
  end
  begin
     id 2 
     name lfemur
     direction 0.34202 -0.939693 0  
     length 6.59069  
     axis 0 0 20  XYZ
    dof rx ry rz
    limits (-160.0 20.0)
           (-70.0 70.0)
           (-60.0 70.0)
  end
  begin
     id 3 
     name ltibia
     direction 0.34202 -0.939693 0   
     length 6.73476   
     axis 0 0 20   XYZ
    dof rx
    limits (-10.0 170.0)
  end
  begin
     id 4 
     name lfoot
     direction 0.0718085 -0.197292 0.977711   
     length 1.52607   
     axis -90 7.62852e-016 20   XYZ
    dof rx rz
    limits (-45.0 90.0)
           (-70.0 20.0)
  end
  begin
     id 5 
     name ltoes
     direction 1.53553e-011 -4.22024e-011 1   
     length 0.777832   
     axis -90 7.62852e-016 20   XYZ
    dof rx
    limits (-90.0 20.0)
  end
  begin
     id 6 
     name rhipjoint
     direction -0.727419 -0.612432 0.309497   
     length 2.50079  
     axis 0 0 0  XYZ 
  end
  begin
     id 7 
     name rfemur
     direction -0.34202 -0.939693 0   
     length 6.51665   
     axis 0 0 -20   XYZ
    dof rx ry rz
    limits (-160.0 20.0)
           (-70.0 70.0)
           (-70.0 60.0)
  end
  begin
     id 8 
     name rtibia
     direction -0.34202 -0.939693 0   
     length 6.48919   
     axis 0 0 -20   XYZ
    dof rx
    limits (-10.0 170.0)
 end
 begin
     id 9 
     name rfoot
     direction -0.112205 -0.308282 0.944655   
     length 1.68717  
     axis -90 -7.62852e-016 -20   XYZ
    dof rx rz
    limits (-45.0 90.0)
           (-20.0 70.0)
  end
  begin
     id 10 
     name rtoes
     direction -1.53583e-011 -4.21993e-011 1   
     length 0.846859   
     axis -90 -7.62852e-016 -20   XYZ
    dof rx
    limits (-90.0 20.0)
  end
  begin
     id 11 
     name lowerback
     direction -0.00119603 0.996364 -0.0851956   
     length 1.67242   
     axis 0 0 0   XYZ
    dof rx ry rz
    limits (-20.0 45.0)
           (-30.0 30.0)
           (-30.0 30.0)
  end
  begin
     id 12 
     name upperback
     direction -0.00531001 0.998318 0.0577248   
     length 1.64819   
     axis 0 0 0   XYZ
    dof rx ry rz
    limits (-20.0 45.0)
           (-30.0 30.0)
           (-30.0 30.0)
  end
  begin
     id 13 
     name thorax
     direction -0.00653676 0.995132 0.0983291   
     length 1.67429   
     axis 0 0 0   XYZ
    dof rx ry rz
    limits (-20.0 45.0)
           (-30.0 30.0)
           (-30.0 30.0)
  end
  begin
     id 14 
     name lowerneck
     direction 0.0141424 0.999886 0.00525412   
     length 1.59623   
     axis 0 0 0   XYZ
    dof rx ry rz
    limits (-20.0 45.0)
           (-30.0 30.0)
           (-30.0 30.0)
  end
  begin
     id 15 
     name upperneck
     direction -0.0640064 0.987178 -0.146232   
     length 1.59576   
     axis 0 0 0   XYZ
    dof rx ry rz
    limits (-20.0 45.0)
           (-30.0 30.0)
           (-30.0 30.0)
  end
  begin
     id 16
     name head
     direction -0.0222942 0.998496 -0.0500859  
     length 1.60959  
     axis 0 0 0   XYZ
    dof rx ry rz
    limits (-20.0 45.0)
           (-30.0 30.0)
           (-30.0 30.0)
  end
  begin
     id 17 
     name lclavicle
     direction 0.908549 0.392612 0.142806  
     length 2.80649  
     axis 0 0 0   XYZ
    dof ry rz
    limits (-20.0 10.0)
           (0.0 20.0)
  end
  begin
     id 18 
     name lhumerus
     direction 1 -4.48968e-011 1.08832e-028   
     length 4.2884   
     axis -180 -30 -90   XYZ
    dof rx ry rz
    limits (-60.0 90.0)
           (-90.0 90.0)
           (-90.0 90.0)
  end
  begin
     id 19
     name lradius
     direction 1 -4.48952e-011 -3.02642e-028   
     length 3.06552   
     axis -180 -30 -90   XYZ
    dof rx
    limits (-10.0 170.0)
  end
  begin
     id 20
     name lwrist
     direction 1 -4.49014e-011 1.58672e-027   
     length 1.53276   
     axis -1.65735e-015 90 90   XYZ
    dof ry
    limits (-180.0 0.0)
 end
  begin
     id 21 
     name lhand
     direction 1 -4.48928e-011 3.17344e-027   
     length 0.753045   
     axis -2.02492e-015 90 90   XYZ
    dof rx rz
    limits (-90.0 90.0)
           (-45.0 45.0)
  end
  begin
     id 22 
     name lfingers
     direction 1 -4.48958e-011 6.34687e-027   
     length 0.607124   
     axis -4.04985e-015 90 90   XYZ
    dof rx
    limits (0.0 90.0)
  end
  begin
     id 23
     name lthumb
     direction 0.707107 -6.34905e-011 0.707107   
     length 0.871712   
     axis -90 45 2.85299e-015   XYZ
    dof rx rz
    limits (-45.0 45.0)
           (-45.0 45.0)
  end
  begin
     id 24 
     name rclavicle
     direction -0.885098 0.45949 0.0739604   
     length 2.9478  
     axis 0 0 0   XYZ 
    dof ry rz
    limits (-10.0 20.0)
           (-20.0 0.0)
  end
  begin
     id 25 
     name rhumerus
     direction -1 -4.4898e-011 -2.61739e-027  
     length 4.52172   
     axis -180 30 90   XYZ
    dof rx ry rz
    limits (-90.0 60.0)
           (-90.0 90.0)
           (-90.0 90.0)
  end
  begin
     id 26 
     name rradius
     direction -1 -4.48945e-011 9.02552e-028   
     length 2.8914   
     axis -180 30 90   XYZ
    dof rx
    limits (-10.0 170.0)
  end
  begin
     id 27 
     name rwrist
     direction -1 -4.49018e-011 1.58672e-027   
     length 1.4457   
     axis -1.65735e-015 -90 -90   XYZ
    dof ry
    limits (-180.0 0.0)
  end
  begin
     id 28
     name rhand
     direction -1 -4.48825e-011 3.17344e-027   
     length 0.680541   
     axis -2.02492e-015 -90 -90   XYZ
    dof rx rz
    limits (-90.0 90.0)
           (-45.0 45.0)
  end
  begin
     id 29
     name rfingers
     direction -1 -4.49067e-011 6.34687e-027   
     length 0.54867   
     axis -4.04985e-015 -90 -90   XYZ
    dof rx
    limits (0.0 90.0)
  end
  begin
     id 30
     name rthumb
     direction -0.707107 -6.34833e-011 0.707107   
     length 0.787783   
     axis -90 -45 -2.85299e-015   XYZ
    dof rx rz
    limits (-45.0 45.0)
           (-45.0 45.0)
  end
:hierarchy
  begin
    root lhipjoint rhipjoint lowerback
    lhipjoint lfemur
    lfemur ltibia
    ltibia lfoot
    lfoot ltoes
    rhipjoint rfemur
    rfemur rtibia
    rtibia rfoot
    rfoot rtoes
    lowerback upperback
    upperback thorax
    thorax lowerneck lclavicle rclavicle
    lowerneck upperneck
    upperneck head
    lclavicle lhumerus
    lhumerus lradius
    lradius lwrist
    lwrist lhand lthumb
    lhand lfingers
    rclavicle rhumerus
    rhumerus rradius
    rradius rwrist
    rwrist rhand rthumb
    rhand rfingers
  end

#!OML:ASF E:\emotionWalksFemale\Project 1\Capture day 1\Session 1\Female1.ASF
:FULLY-SPECIFIED
:DEGREES
1
root 9.19829 15.4964 23.3575 178.772 -4.46377 -179.35
lowerback 8.184 3.37627 3.47342
upperback -4.43165 4.88655 -0.00795862
thorax -9.01047 2.13167 -2.71007
lowerneck -0.919262 17.1079 9.86425
upperneck 3.63336 23.0164 -8.09821
head 3.2698 11.4139 -2.77724
rclavicle 2.29845e-014 -3.77691e-015
rhumerus -48.622 12.5679 -98.0777
rradius 34.3764
rwrist 14.8329
rhand -2.99487 -55.6802
rfingers 7.12502
rthumb 22.7189 -84.3627
lclavicle 2.29845e-014 -3.77691e-015
lhumerus -42.3055 -12.2329 94.5415
lradius 34.789
lwrist -14.5398
lhand -1.75671 -38.0937
lfingers 7.12502
lthumb 23.9067 -9.56175
rfemur 3.31544 13.8315 27.0367
rtibia 13.2845
rfoot -15.4246 -32.5533
rtoes 2.20839
lfemur -5.84235 -21.2837 -21.9728
ltibia 23.6673
lfoot -18.1704 15.5924
ltoes -41.4022
2
root 9.20154 15.4957 23.3617 178.92 -4.63199 -179.498
lowerback 8.12399 3.34644 3.27937
upperback -4.49855 4.81609 -0.0527015
thorax -9.0641 2.10445 -2.63799
lowerneck -0.307366 16.9965 9.95798
upperneck 2.85308 22.8925 -8.48198
head 2.98349 11.369 -2.99537
rclavicle -5.65294e-015 2.38542e-015
rhumerus -48.7946 12.7163 -98.3623
rradius 34.263
rwrist 13.8496
rhand -9.33309 -53.6152
rfingers 7.12502
rthumb 16.6258 -82.9231
lclavicle -5.65294e-015 2.38542e-015
lhumerus -42.3486 -12.2519 94.6293
lradius 34.5227
lwrist -15.1697
lhand -3.53904 -38.3448
lfingers 7.12502
lthumb 22.1966 -9.59926
rfemur 3.05761 13.871 26.8561
rtibia 13.5099
rfoot -15.8234 -32.7461
rtoes 4.35659
lfemur -5.98117 -21.3277 -22.0491
ltibia 23.5444
lfoot -18.0485 15.1781
ltoes -41.5078
3
root 9.20427 15.4976 23.3649 179.051 -4.8219 -179.511
lowerback 8.06622 3.28954 3.23231
upperback -4.54222 4.73143 -0.0376539
thorax -9.0881 2.06448 -2.58107
lowerneck 0.0307075 16.9219 10.0343
upperneck 2.42019 22.8107 -8.83248
head 2.8432 11.3347 -3.15591
rclavicle -5.0218e-014 -6.4605e-015
rhumerus -48.8129 12.8668 -98.4263
rradius 34.2257
rwrist 13.3973
rhand -11.1164 -52.9691
rfingers 7.12502
rthumb 14.9084 -82.4126
lclavicle -5.0218e-014 -6.4605e-015
lhumerus -42.3074 -12.1631 94.6482
lradius 34.2783
lwrist -15.8817
lhand -4.86323 -38.7366
lfingers 7.12502
lthumb 20.9248 -9.8452
rfemur 2.86912 13.8731 26.8291
rtibia 13.6005
rfoot -15.9689 -32.8811
rtoes 4.70756
lfemur -6.15915 -21.4022 -21.9765
ltibia 23.4768
lfoot -17.983 15.1453
ltoes -41.8764
4
root 9.20636 15.5004 23.3686 179.201 -4.96312 -179.501
lowerback 7.99869 3.25001 3.22821
upperback -4.59979 4.67385 -0.029158
thorax -9.1159 2.03419 -2.55875
lowerneck -0.189462 16.9774 9.98904
upperneck 2.72755 22.8772 -8.65899
head 2.95056 11.3617 -3.06368
rclavicle -3.69243e-014 -6.26172e-015
rhumerus -48.8047 12.9428 -98.4393
rradius 34.2382
rwrist 13.2623
rhand -11.1987 -52.9193
rfingers 7.12502
rthumb 14.8291 -82.3687
lclavicle -3.69243e-014 -6.26172e-015
lhumerus -42.3107 -12.1832 94.6876
lradius 34.5849
lwrist -15.1611
lhand -3.65879 -38.3272
lfingers 7.12502
lthumb 22.0816 -9.56797
rfemur 2.61349 13.783 26.7912
rtibia 13.733
rfoot -16.08 -32.8998
rtoes 4.84456
lfemur -6.33447 -21.4595 -21.8834
ltibia 23.3893
lfoot -17.875 15.2393
ltoes -42.2024
5
root 9.2117 15.5068 23.3768 179.492 -5.27587 -179.555
lowerback 7.89195 3.17819 3.14093
upperback -4.73957 4.55519 -0.075528
thorax -9.21586 1.97301 -2.53994
lowerneck -0.110746 16.9602 10.0874
upperneck 2.7644 22.8601 -8.62317
head 2.95438 11.3575 -3.07168
rclavicle 3.49737e-014 9.34288e-015
rhumerus -48.7841 12.572 -98.189
rradius 34.2497
rwrist 14.3642
rhand -8.86386 -53.4126
rfingers 7.12502
rthumb 17.0775 -82.682
lclavicle 3.49737e-014 9.34288e-015
lhumerus -42.3913 -12.3001 94.6814
lradius 34.7002
lwrist -14.9139
lhand -3.38563 -38.4038
lfingers 7.12502
lthumb 22.3438 -9.67584
rfemur 2.23948 13.6483 26.6661
rtibia 13.7991
rfoot -16.2517 -32.9427
rtoes 5.84578
lfemur -6.74779 -21.5447 -21.7691
ltibia 23.3312
lfoot -17.7468 14.8997
ltoes -42.396
6
root 9.20287 15.5043 23.3547 179.362 -4.84224 -179.588
lowerback 7.65316 3.34121 3.22568
upperback -4.63631 4.77068 -0.127498
thorax -8.93783 2.08193 -2.65176
lowerneck 0.486457 16.8069 10.3496
upperneck 2.08899 22.686 -9.09807
head 2.72699 11.2873 -3.32928
rclavicle 5.52497e-014 8.74653e-015
rhumerus -48.6141 11.9762 -97.7165
rradius 34.801
rwrist 14.8739
rhand -3.49364 -55.4671
rfingers 7.12502
rthumb 22.2401 -84.2075
lclavicle 5.52497e-014 8.74653e-015
lhumerus -42.4204 -12.3685 94.6107
lradius 34.2955
lwrist -15.8769
lhand -5.06324 -39.3565
lfingers 7.12502
lthumb 20.7327 -10.4441
rfemur 2.42615 13.6731 26.6058
rtibia 13.814
rfoot -16.0158 -32.5967
rtoes 5.29958
lfemur -6.39924 -21.6258 -21.9771
ltibia 23.3109
lfoot -17.8825 15.2461
ltoes -41.8614
7
root 9.20054 15.5051 23.3469 179.33 -4.63597 -179.535
lowerback 7.6003 3.40575 3.33118
upperback -4.62051 4.86727 -0.122733
thorax -8.87547 2.12476 -2.71412
lowerneck 0.807426 16.7268 10.4258
upperneck 1.68402 22.592 -9.3519
head 2.58477 11.2494 -3.46249
rclavicle 8.56389e-014 9.34288e-015
rhumerus -48.5207 11.7569 -97.5156
rradius 35.3526
rwrist 14.4031
rhand -0.820268 -57.016
rfingers 7.12502
rthumb 24.8045 -85.4273
lclavicle 8.56389e-014 9.34288e-015
lhumerus -42.4729 -12.3871 94.6028
lradius 34.0608
lwrist -16.5235
lhand -6.18879 -39.8008
lfingers 7.12502
lthumb 19.6509 -10.774
rfemur 2.47618 13.6514 26.6428
rtibia 13.7938
rfoot -15.798 -32.4411
rtoes 4.29324
lfemur -6.30094 -21.63 -21.9692
ltibia 23.3184
lfoot -17.8552 15.4319
ltoes -41.8567
8
root 9.20057 15.5079 23.344 179.377 -4.60008 -179.486
lowerback 7.56407 3.41292 3.36468
upperback -4.65016 4.88057 -0.0864759
thorax -8.88626 2.12871 -2.69469
lowerneck 0.548494 16.7913 10.224
upperneck 1.98173 22.6605 -9.0227
head 2.66004 11.2777 -3.30938
rclavicle 1.45982e-014 2.88238e-015
rhumerus -48.5355 11.7839 -97.4969
rradius 35.5714
rwrist 13.9188
rhand -0.355195 -57.5993
rfingers 7.12502
rthumb 25.2501 -85.9485
lclavicle 1.45982e-014 2.88238e-015
lhumerus -42.5315 -12.4938 94.7524
lradius 34.1914
lwrist -16.245
lhand -6.05 -39.3488
lfingers 7.12502
lthumb 19.7843 -10.3356
rfemur 2.43912 13.6161 26.6774
rtibia 13.7828
rfoot -15.987 -32.3575
rtoes 4.4021
lfemur -6.35369 -21.599 -21.8996
ltibia 23.3429
lfoot -17.9735 15.3246
ltoes -41.7158
9
root 9.20024 15.5075 23.3402 179.35 -4.61203 -179.465
lowerback 7.54212 3.40442 3.36676
upperback -4.62885 4.87043 -0.0616925
thorax -8.85278 2.12604 -2.66571
lowerneck -0.0927377 16.908 9.97044
upperneck 2.69336 22.7801 -8.44086
head 2.8884 11.3225 -3.02398
rclavicle 8.28684e-015 -2.88238e-015
rhumerus -48.5597 11.8563 -97.518
rradius 35.6147
rwrist 13.9367
rhand 0.285215 -57.9502
rfingers 7.12502
rthumb 25.8635 -86.2114
lclavicle 8.28684e-015 -2.88238e-015
lhumerus -42.529 -12.6618 94.9455
lradius 34.6728
lwrist -15.1394
lhand -4.4369 -38.1743
lfingers 7.12502
lthumb 21.3344 -9.32869
rfemur 2.4894 13.598 26.7085
rtibia 13.7748
rfoot -16.1468 -32.3146
rtoes 4.96114
lfemur -6.33072 -21.6118 -21.8909
ltibia 23.3899
lfoot -18.2027 15.3686
ltoes -41.265
10
root 9.20066 15.5049 23.3391 179.274 -4.60654 -179.44
lowerback 7.60575 3.41043 3.40357
upperback -4.59834 4.88713 -0.0560639
thorax -8.85345 2.13321 -2.68595
lowerneck -0.223555 16.892 9.96075
upperneck 2.83982 22.7526 -8.36959
head 2.9412 11.3056 -2.98729
rclavicle 4.47514e-014 7.15625e-015
rhumerus -48.5997 11.9984 -97.6616
rradius 35.6156
rwrist 13.5226
rhand 0.50122 -58.2903
rfingers 7.12502
rthumb 26.0704 -86.5212
lclavicle 4.47514e-014 7.15625e-015
lhumerus -42.5175 -12.6785 94.9462
lradius 34.5691
lwrist -15.4416
lhand -5.00295 -38.5495
lfingers 7.12502
lthumb 20.7906 -9.64334
rfemur 2.57499 13.5905 26.7536
rtibia 13.7539
rfoot -16.0446 -32.3065
rtoes 5.02232
lfemur -6.29263 -21.3735 -21.8631
ltibia 23.4371
lfoot -18.2777 15.3457
ltoes -41.4373
11
root 9.20206 15.503 23.3405 179.239 -4.62802 -179.413
lowerback 7.66795 3.41743 3.4625
upperback -4.59219 4.90559 -0.0726837
thorax -8.87597 2.13776 -2.74314
lowerneck 0.332936 16.7563 10.2093
upperneck 2.22135 22.6039 -8.88487
head 2.74281 11.2443 -3.24481
rclavicle 6.41081e-015 2.78299e-015
rhumerus -48.5626 12.0234 -97.7546
rradius 35.5403
rwrist 13.1654
rhand -1.09271 -57.7436
rfingers 7.12502
rthumb 24.5433 -86.1906
lclavicle 6.41081e-015 2.78299e-015
lhumerus -42.5435 -12.8431 95.0047
lradius 34.576
lwrist -15.4193
lhand -5.20109 -38.4238
lfingers 7.12502
lthumb 20.6002 -9.49689
rfemur 2.60174 13.6094 26.8024
rtibia 13.7454
rfoot -16.0605 -32.3662
rtoes 5.12155
lfemur -6.31334 -21.1179 -21.8044
ltibia 23.473
lfoot -18.2675 15.1247
ltoes -41.3994
12
root 9.20364 15.503 23.3403 179.264 -4.65415 -179.384
lowerback 7.62756 3.41034 3.50412
upperback -4.5879 4.89797 -0.0836438
thorax -8.84374 2.13225 -2.77346
lowerneck 0.645562 16.6883 10.3884
upperneck 1.8563 22.5314 -9.20901
head 2.63522 11.2158 -3.40281
rclavicle 6.53753e-014 4.07509e-015
rhumerus -48.4707 11.9284 -97.7057
rradius 35.486
rwrist 13.3028
rhand 0.650377 -58.3119
rfingers 7.12502
rthumb 26.2132 -86.5216
lclavicle 6.53753e-014 4.07509e-015
lhumerus -42.564 -12.9116 94.9991
lradius 34.4321
lwrist -15.8759
lhand -6.14283 -38.9355
lfingers 7.12502
lthumb 19.695 -9.91324
rfemur 2.56687 13.6888 26.8496
rtibia 13.7441
rfoot -16.0418 -32.4923
rtoes 4.97173
lfemur -6.34407 -21.3482 -21.7762
ltibia 23.4986
lfoot -18.2465 15.2913
ltoes -41.0703
13
root 9.20492 15.503 23.3377 179.317 -4.62718 -179.354
lowerback 7.52355 3.42406 3.53283
upperback -4.57842 4.91468 -0.076232
thorax -8.7695 2.14123 -2.77557
lowerneck 0.607031 16.6672 10.4174
upperneck 1.867 22.5036 -9.28287
head 2.65379 11.1996 -3.42386
rclavicle 5.03298e-014 1.02374e-014
rhumerus -48.4244 11.8966 -97.6557
rradius 35.4813
rwrist 13.4269
rhand 0.0878561 -58.0857
rfingers 7.12502
rthumb 25.6745 -86.3743
lclavicle 5.03298e-014 1.02374e-014
lhumerus -42.5052 -13.0732 95.0933
lradius 34.7115
lwrist -15.1703
lhand -5.08432 -38.2527
lfingers 7.12502
lthumb 20.7124 -9.33801
rfemur 2.52662 13.7166 26.8792
rtibia 13.6954
rfoot -15.7541 -32.5106
rtoes 4.26173
lfemur -6.38103 -21.6018 -21.7467
ltibia 23.5146
lfoot -18.1905 15.5901
ltoes -41.3288
